<svg preserveAspectRatio="none" overflow="visible" style="display: block;" width="18" height="18" viewBox="0 0 18 18" fill="none" xmlns="http://www.w3.org/2000/svg">
<g id="instagram">
<path id="Vector" d="M13.1253 4.70578H13.1328M5.2497 1.4994H12.7503C14.8215 1.4994 16.5006 3.09445 16.5006 5.06205V12.1874C16.5006 14.1549 14.8215 15.75 12.7503 15.75H5.2497C3.17847 15.75 1.4994 14.1549 1.4994 12.1874V5.06205C1.4994 3.09445 3.17847 1.4994 5.2497 1.4994ZM12 8.17602C12.0926 8.76902 11.986 9.37465 11.6953 9.90677C11.4047 10.4389 10.9448 10.8704 10.3811 11.1399C9.81742 11.4094 9.17863 11.5032 8.55558 11.408C7.93254 11.3128 7.35697 11.0333 6.91074 10.6094C6.46452 10.1855 6.17035 9.63876 6.0701 9.04688C5.96984 8.45501 6.06859 7.84818 6.35231 7.3127C6.63603 6.77722 7.09027 6.34036 7.65041 6.06425C8.21055 5.78815 8.84808 5.68686 9.47232 5.77479C10.1091 5.86449 10.6986 6.14635 11.1537 6.57875C11.6089 7.01114 11.9056 7.57114 12 8.17602Z" stroke="white" stroke-width="2" stroke-linecap="round"/>
</g>
</svg>
