<svg preserveAspectRatio="none" overflow="visible" style="display: block;" width="18" height="18" viewBox="0 0 18 18" fill="none" xmlns="http://www.w3.org/2000/svg">
<g id="icon-wrapper" clip-path="url(#clip0_0_9)">
<path id="Vector" d="M17.3007 15.7234L12.6 10.5004V15C12.6 16.6569 11.7941 18 10.8 18H1.8C0.805887 18 0 16.6569 0 15V3C0 1.34315 0.805887 0 1.8 0H10.8C11.7941 0 12.6 1.34315 12.6 3V6.7504L17.3232 2.1574C17.3916 2.09089 17.4693 2.05563 17.5485 2.05518C17.6277 2.05473 17.7055 2.08911 17.7742 2.15485C17.8428 2.22058 17.8998 2.31535 17.9395 2.42957C17.9792 2.54379 18 2.67343 18 2.8054V15.0994C18 15.2351 17.9778 15.3682 17.936 15.4845C17.8942 15.6009 17.8342 15.6962 17.7624 15.7602C17.6906 15.8242 17.6098 15.8546 17.5285 15.8482C17.4472 15.8417 17.3685 15.7986 17.3007 15.7234Z" fill="white"/>
</g>
<defs>
<clipPath id="clip0_0_9">
<rect width="18" height="18" fill="white"/>
</clipPath>
</defs>
</svg>
